<svg width="17" height="17" viewBox="0 0 17 17" fill="none" xmlns="http://www.w3.org/2000/svg">
<path d="M6.18182 0H1.54545C1.13557 0 0.742482 0.162824 0.452653 0.452653C0.162824 0.742482 0 1.13557 0 1.54545V6.18182C0 6.5917 0.162824 6.98479 0.452653 7.27462C0.742482 7.56445 1.13557 7.72727 1.54545 7.72727H6.18182C6.5917 7.72727 6.98479 7.56445 7.27462 7.27462C7.56445 6.98479 7.72727 6.5917 7.72727 6.18182V1.54545C7.72727 1.13557 7.56445 0.742482 7.27462 0.452653C6.98479 0.162824 6.5917 0 6.18182 0ZM6.18182 6.18182H1.54545V1.54545H6.18182V6.18182ZM6.18182 9.27273H1.54545C1.13557 9.27273 0.742482 9.43555 0.452653 9.72538C0.162824 10.0152 0 10.4083 0 10.8182V15.4545C0 15.8644 0.162824 16.2575 0.452653 16.5473C0.742482 16.8372 1.13557 17 1.54545 17H6.18182C6.5917 17 6.98479 16.8372 7.27462 16.5473C7.56445 16.2575 7.72727 15.8644 7.72727 15.4545V10.8182C7.72727 10.4083 7.56445 10.0152 7.27462 9.72538C6.98479 9.43555 6.5917 9.27273 6.18182 9.27273ZM6.18182 15.4545H1.54545V10.8182H6.18182V15.4545ZM15.4545 0H10.8182C10.4083 0 10.0152 0.162824 9.72538 0.452653C9.43555 0.742482 9.27273 1.13557 9.27273 1.54545V6.18182C9.27273 6.5917 9.43555 6.98479 9.72538 7.27462C10.0152 7.56445 10.4083 7.72727 10.8182 7.72727H15.4545C15.8644 7.72727 16.2575 7.56445 16.5473 7.27462C16.8372 6.98479 17 6.5917 17 6.18182V1.54545C17 1.13557 16.8372 0.742482 16.5473 0.452653C16.2575 0.162824 15.8644 0 15.4545 0ZM15.4545 6.18182H10.8182V1.54545H15.4545V6.18182ZM9.27273 13.1364V10.0455C9.27273 9.84051 9.35414 9.64397 9.49905 9.49905C9.64397 9.35414 9.84051 9.27273 10.0455 9.27273C10.2504 9.27273 10.4469 9.35414 10.5919 9.49905C10.7368 9.64397 10.8182 9.84051 10.8182 10.0455V13.1364C10.8182 13.3413 10.7368 13.5379 10.5919 13.6828C10.4469 13.8277 10.2504 13.9091 10.0455 13.9091C9.84051 13.9091 9.64397 13.8277 9.49905 13.6828C9.35414 13.5379 9.27273 13.3413 9.27273 13.1364ZM17 11.5909C17 11.7958 16.9186 11.9924 16.7737 12.1373C16.6288 12.2822 16.4322 12.3636 16.2273 12.3636H13.9091V16.2273C13.9091 16.4322 13.8277 16.6288 13.6828 16.7737C13.5379 16.9186 13.3413 17 13.1364 17H10.0455C9.84051 17 9.64397 16.9186 9.49905 16.7737C9.35414 16.6288 9.27273 16.4322 9.27273 16.2273C9.27273 16.0223 9.35414 15.8258 9.49905 15.6809C9.64397 15.536 9.84051 15.4545 10.0455 15.4545H12.3636V10.0455C12.3636 9.84051 12.445 9.64397 12.59 9.49905C12.7349 9.35414 12.9314 9.27273 13.1364 9.27273C13.3413 9.27273 13.5379 9.35414 13.6828 9.49905C13.8277 9.64397 13.9091 9.84051 13.9091 10.0455V10.8182H16.2273C16.4322 10.8182 16.6288 10.8996 16.7737 11.0445C16.9186 11.1894 17 11.386 17 11.5909ZM17 14.6818V16.2273C17 16.4322 16.9186 16.6288 16.7737 16.7737C16.6288 16.9186 16.4322 17 16.2273 17C16.0223 17 15.8258 16.9186 15.6809 16.7737C15.536 16.6288 15.4545 16.4322 15.4545 16.2273V14.6818C15.4545 14.4769 15.536 14.2803 15.6809 14.1354C15.8258 13.9905 16.0223 13.9091 16.2273 13.9091C16.4322 13.9091 16.6288 13.9905 16.7737 14.1354C16.9186 14.2803 17 14.4769 17 14.6818Z" fill="white"/>
</svg>
