<svg width="19" height="15" viewBox="0 0 19 15" fill="none" xmlns="http://www.w3.org/2000/svg">
<path d="M18.6694 4.13151C18.5265 4.00693 18.3499 3.92763 18.1618 3.90367C17.9738 3.8797 17.7829 3.91216 17.6133 3.99692L13.6382 5.97615L10.3194 0.463598C10.2341 0.322143 10.1137 0.205131 9.96987 0.123906C9.82603 0.0426815 9.66364 0 9.49845 0C9.33326 0 9.17087 0.0426815 9.02703 0.123906C8.88319 0.205131 8.76278 0.322143 8.67747 0.463598L5.35869 5.97853L1.38519 3.9993C1.21603 3.91529 1.02584 3.88311 0.838466 3.90681C0.651095 3.9305 0.474894 4.00901 0.331977 4.13247C0.189059 4.25594 0.0857914 4.41887 0.0351327 4.60081C-0.0155259 4.78275 -0.0113188 4.97561 0.0472261 5.15517L2.97649 14.1298C3.00594 14.22 3.05527 14.3023 3.12082 14.3709C3.18638 14.4394 3.2665 14.4924 3.35526 14.5258C3.44402 14.5593 3.53916 14.5723 3.63365 14.5641C3.72814 14.5558 3.81957 14.5265 3.90118 14.4781C3.92098 14.4663 5.94533 13.3001 9.49845 13.3001C13.0516 13.3001 15.0759 14.4663 15.0941 14.4773C15.1758 14.5261 15.2674 14.5559 15.3621 14.5644C15.4568 14.573 15.5523 14.5601 15.6413 14.5267C15.7304 14.4933 15.8108 14.4403 15.8765 14.3716C15.9423 14.3029 15.9917 14.2202 16.0212 14.1298L18.9505 5.15754C19.0107 4.97793 19.0161 4.78447 18.9661 4.60176C18.916 4.41905 18.8128 4.25536 18.6694 4.13151ZM13.2859 10.5133C13.2601 10.6599 13.1835 10.7926 13.0695 10.8883C12.9556 10.984 12.8116 11.0365 12.6628 11.0367C12.6257 11.0366 12.5886 11.0334 12.552 11.0271C10.529 10.6799 8.46158 10.6799 6.43856 11.0271C6.35663 11.0416 6.27266 11.0398 6.19144 11.0218C6.11022 11.0038 6.03335 10.97 5.9652 10.9222C5.82756 10.8259 5.73385 10.6788 5.70466 10.5133C5.67547 10.3479 5.71321 10.1776 5.80957 10.04C5.90593 9.90235 6.05301 9.80863 6.21847 9.77944C8.38712 9.40682 10.6034 9.40682 12.7721 9.77944C12.8543 9.79351 12.9329 9.82368 13.0035 9.86822C13.074 9.91276 13.135 9.97079 13.1831 10.039C13.2311 10.1072 13.2652 10.1842 13.2834 10.2656C13.3016 10.347 13.3035 10.4312 13.2891 10.5133H13.2859Z" fill="#FFCF51"/>
</svg>
