<svg width="17" height="18" viewBox="0 0 17 18" fill="none" xmlns="http://www.w3.org/2000/svg">
<path d="M11.0809 0C12.9702 0 14.4085 0.425533 15.3958 1.2766C16.383 2.11064 16.8766 3.22554 16.8766 4.62128C16.8766 5.04681 16.8426 5.42979 16.7745 5.77022C16.5702 6.99575 16.0511 8.0766 15.217 9.01277C14.383 9.93192 13.2766 10.5872 11.8979 10.9787L14.7064 18H9.14043L6.74043 11.3617H6.20426L5.02979 18H0L3.19149 0H11.0809ZM6.81702 7.94043H9.29362C10.6213 7.94043 11.4043 7.31064 11.6426 6.05107C11.6766 5.84681 11.6936 5.70213 11.6936 5.61703C11.6936 5.15745 11.5404 4.80001 11.2341 4.54469C10.9447 4.28937 10.5106 4.1617 9.93192 4.1617H7.45532L6.81702 7.94043Z" fill="white"/>
</svg>
