<svg width="18" height="18" viewBox="0 0 18 18" fill="none" xmlns="http://www.w3.org/2000/svg">
<path d="M0.175731 8.98745C0.476987 7.24686 1.11297 5.69874 2.08368 4.34309C3.05439 2.97071 4.27615 1.90795 5.74895 1.15481C7.22176 0.384937 8.82845 0 10.569 0C12.0251 0 13.2971 0.267782 14.3849 0.803347C15.4728 1.33891 16.318 2.10042 16.9205 3.08787C17.523 4.07531 17.8494 5.23849 17.8996 6.57741H12.6025C12.4017 5.92469 12.0502 5.42259 11.5481 5.07113C11.046 4.71967 10.4268 4.54393 9.69038 4.54393C8.5523 4.54393 7.57322 4.94561 6.75314 5.74895C5.93305 6.5523 5.40586 7.6318 5.17155 8.98745C5.1046 9.33891 5.07113 9.71548 5.07113 10.1172C5.07113 11.1548 5.33891 11.9749 5.87448 12.5774C6.42678 13.1632 7.17992 13.4561 8.13389 13.4561C8.87029 13.4561 9.54812 13.2803 10.1674 12.9289C10.8033 12.5774 11.3305 12.0753 11.749 11.4226H17.0711C16.2678 13.4477 15.0042 15.0544 13.2803 16.2427C11.5565 17.4142 9.58996 18 7.38075 18C5.85774 18 4.53556 17.7071 3.41423 17.1213C2.30962 16.5356 1.46443 15.7071 0.87866 14.636C0.292886 13.5649 0 12.3264 0 10.9205C0 10.2678 0.0585766 9.62343 0.175731 8.98745Z" fill="white"/>
</svg>
